<svg width="51" height="68" viewBox="0 0 51 68" fill="none" xmlns="http://www.w3.org/2000/svg">
<circle cx="25.5" cy="42.5" r="25.5" fill="#D9D9D9" fill-opacity="0.31"/>
<path d="M16 11C24.2009 9.66737 28.7991 9.8304 37 11V22C29.1621 25.411 24.6653 26.3625 16 22V11Z" fill="#D9D9D9"/>
<path d="M21 11C22.5714 3.45376 26.9714 -7.11096 32 11" stroke="#925218"/>
<path fill-rule="evenodd" clip-rule="evenodd" d="M9.00952 31.5933C7.2874 30.338 5.95889 28.665 5.1041 27.238L5.75444 26.3654C6.53507 27.7659 7.85702 29.5157 9.59857 30.7852C11.578 32.2281 14.0676 33.0329 16.9464 32.054C20.8271 30.7343 23.8779 30.3804 26.3632 30.8955C28.8685 31.4146 30.7384 32.8037 32.2717 34.8373C32.9469 35.7326 33.7176 36.2109 34.5207 36.4008C35.3316 36.5925 36.2189 36.5 37.1316 36.1765C38.9684 35.5253 40.8132 33.9701 42.1015 32.2298C43.2592 30.666 44.7055 30.0825 46.0431 30.0127C46.6948 29.9787 47.3159 30.0664 47.863 30.2149L48.5694 31.5541C47.9828 31.2476 47.0748 30.9602 46.0952 31.0113C45.0359 31.0666 43.8737 31.5166 42.9052 32.8248C41.5358 34.6746 39.5417 36.3831 37.4657 37.119C36.4221 37.489 35.3345 37.6208 34.2906 37.374C33.2388 37.1253 32.2747 36.5021 31.4733 35.4393C30.0536 33.5564 28.3798 32.3346 26.1603 31.8746C23.9208 31.4106 21.0656 31.7094 17.2684 33.0007C14.0049 34.1105 11.179 33.1747 9.00952 31.5933Z" fill="#EEBE12"/>
<path fill-rule="evenodd" clip-rule="evenodd" d="M0.928246 49.2548C1.86474 50.42 3.11031 51.6411 4.62097 52.6101C7.07267 54.1828 10.2428 55.1013 13.9017 54.0064C18.2257 52.7124 21.4952 52.4072 24.0714 52.8769C26.6287 53.3433 28.544 54.5808 30.1572 56.4636C32.0017 58.6163 34.4982 58.8593 36.8519 58.125C39.1856 57.397 41.4431 55.7 43.0001 53.8492C44.1049 52.5359 45.4478 52.0687 46.6924 52.0115C47.5742 51.971 48.4037 52.1375 49.0486 52.3595L49.3854 51.4179C48.6299 51.1564 47.671 50.9655 46.6465 51.0126C45.1674 51.0805 43.5461 51.6467 42.2348 53.2055C40.7717 54.9447 38.6667 56.5114 36.5541 57.1704C34.4615 57.8232 32.4278 57.5767 30.9166 55.813C29.1741 53.7794 27.0626 52.4059 24.2508 51.8932C21.4578 51.3838 18.0159 51.7314 13.615 53.0483C10.2941 54.0421 7.42397 53.2201 5.1609 51.7684C2.8852 50.3086 1.24393 48.222 0.437953 46.7588L0.379517 46.7909C0.51913 47.7447 0.65705 48.3651 0.928246 49.2548Z" fill="#EEBE12"/>
</svg>
