<svg width="408" height="308" viewBox="0 0 408 308" fill="none" xmlns="http://www.w3.org/2000/svg">
<g filter="url(#filter0_d_1_4)">
<rect width="400" height="300" transform="translate(4)" fill="#C3D8B9"/>
<rect x="197" y="167" width="13" height="113" rx="6.5" fill="#D9B57E"/>
<g filter="url(#filter1_i_1_4)">
<path d="M153 91.5C153 63.6096 175.61 41 203.5 41V41C231.39 41 254 63.6096 254 91.5V196H153V91.5Z" fill="#857363"/>
</g>
<path fill-rule="evenodd" clip-rule="evenodd" d="M154 95C158 94.6667 167 91.7 171 82.5C176 71 176.5 70.5 184 70C191.5 69.5 195 63.5 189.5 55.5C185.586 49.8072 187.242 44.874 191.226 42.502C169.267 47.9851 153 67.8429 153 91.5V99.0784L154 95Z" fill="#E3E4E0"/>
<rect x="226" y="84" width="13" height="68" rx="6.5" fill="white" fill-opacity="0.1"/>
</g>
<defs>
<filter id="filter0_d_1_4" x="0" y="0" width="408" height="308" filterUnits="userSpaceOnUse" color-interpolation-filters="sRGB">
<feFlood flood-opacity="0" result="BackgroundImageFix"/>
<feColorMatrix in="SourceAlpha" type="matrix" values="0 0 0 0 0 0 0 0 0 0 0 0 0 0 0 0 0 0 127 0" result="hardAlpha"/>
<feOffset dy="4"/>
<feGaussianBlur stdDeviation="2"/>
<feComposite in2="hardAlpha" operator="out"/>
<feColorMatrix type="matrix" values="0 0 0 0 0 0 0 0 0 0 0 0 0 0 0 0 0 0 0.25 0"/>
<feBlend mode="normal" in2="BackgroundImageFix" result="effect1_dropShadow_1_4"/>
<feBlend mode="normal" in="SourceGraphic" in2="effect1_dropShadow_1_4" result="shape"/>
</filter>
<filter id="filter1_i_1_4" x="153" y="41" width="129" height="156" filterUnits="userSpaceOnUse" color-interpolation-filters="sRGB">
<feFlood flood-opacity="0" result="BackgroundImageFix"/>
<feBlend mode="normal" in="SourceGraphic" in2="BackgroundImageFix" result="shape"/>
<feColorMatrix in="SourceAlpha" type="matrix" values="0 0 0 0 0 0 0 0 0 0 0 0 0 0 0 0 0 0 127 0" result="hardAlpha"/>
<feOffset dx="36" dy="1"/>
<feGaussianBlur stdDeviation="14"/>
<feComposite in2="hardAlpha" operator="arithmetic" k2="-1" k3="1"/>
<feColorMatrix type="matrix" values="0 0 0 0 0 0 0 0 0 0 0 0 0 0 0 0 0 0 0.25 0"/>
<feBlend mode="normal" in2="shape" result="effect1_innerShadow_1_4"/>
</filter>
</defs>
</svg>
