<svg width="62" height="107" viewBox="0 0 62 107" fill="none" xmlns="http://www.w3.org/2000/svg">
<g filter="url(#filter0_f_2_160)">
<ellipse cx="36.579" cy="98.1579" rx="1.10526" ry="2.94737" fill="#EBC814"/>
</g>
<ellipse cx="36.5789" cy="101.105" rx="2.57895" ry="5.89474" fill="#EEBE12" fill-opacity="0.39"/>
<ellipse cx="36.2105" cy="94.4737" rx="0.736842" ry="1.47368" fill="#925218" fill-opacity="0.68"/>
<ellipse cx="36.2105" cy="94.4737" rx="0.736842" ry="1.47368" fill="#C2C1C1" fill-opacity="0.52"/>
<path d="M36.2105 96.4474C36.7054 96.4474 37.0189 96.0592 37.1788 95.7393C37.3536 95.3896 37.4474 94.9414 37.4474 94.4737C37.4474 94.0059 37.3536 93.5578 37.1788 93.208C37.0189 92.8882 36.7054 92.5 36.2105 92.5C35.7156 92.5 35.4022 92.8882 35.2423 93.208C35.0674 93.5578 34.9737 94.0059 34.9737 94.4737C34.9737 94.9414 35.0674 95.3896 35.2423 95.7393C35.4022 96.0592 35.7156 96.4474 36.2105 96.4474Z" stroke="#C2C1C1" stroke-opacity="0.52"/>
<g filter="url(#filter1_f_2_160)">
<ellipse cx="21.579" cy="21.1579" rx="1.10526" ry="2.94737" fill="#EBC814"/>
</g>
<ellipse cx="21.5789" cy="24.1053" rx="2.57895" ry="5.89474" fill="#EEBE12" fill-opacity="0.39"/>
<ellipse cx="21.2105" cy="17.4737" rx="0.736842" ry="1.47368" fill="#925218" fill-opacity="0.68"/>
<ellipse cx="21.2105" cy="17.4737" rx="0.736842" ry="1.47368" fill="#C2C1C1" fill-opacity="0.52"/>
<path d="M21.2105 19.4474C21.7054 19.4474 22.0189 19.0592 22.1788 18.7393C22.3536 18.3896 22.4474 17.9414 22.4474 17.4737C22.4474 17.0059 22.3536 16.5578 22.1788 16.208C22.0189 15.8882 21.7054 15.5 21.2105 15.5C20.7156 15.5 20.4022 15.8882 20.2423 16.208C20.0674 16.5578 19.9737 17.0059 19.9737 17.4737C19.9737 17.9414 20.0674 18.3896 20.2423 18.7393C20.4022 19.0592 20.7156 19.4474 21.2105 19.4474Z" stroke="#C2C1C1" stroke-opacity="0.52"/>
<g filter="url(#filter2_f_2_160)">
<ellipse cx="3.57896" cy="8.15791" rx="1.10526" ry="2.94737" fill="#EBC814"/>
</g>
<ellipse cx="3.57895" cy="11.1053" rx="2.57895" ry="5.89474" fill="#EEBE12" fill-opacity="0.39"/>
<ellipse cx="3.21054" cy="4.47368" rx="0.736842" ry="1.47368" fill="#925218" fill-opacity="0.68"/>
<ellipse cx="3.21054" cy="4.47368" rx="0.736842" ry="1.47368" fill="#C2C1C1" fill-opacity="0.52"/>
<path d="M3.21054 6.44737C3.70542 6.44737 4.01886 6.05918 4.17878 5.73934C4.35365 5.3896 4.44738 4.94142 4.44738 4.47368C4.44738 4.00595 4.35365 3.55777 4.17878 3.20803C4.01886 2.88819 3.70542 2.5 3.21054 2.5C2.71565 2.5 2.40221 2.88819 2.2423 3.20803C2.06742 3.55777 1.97369 4.00595 1.97369 4.47368C1.97369 4.94142 2.06742 5.3896 2.2423 5.73934C2.40221 6.05918 2.71565 6.44737 3.21054 6.44737Z" stroke="#C2C1C1" stroke-opacity="0.52"/>
<g filter="url(#filter3_f_2_160)">
<ellipse cx="32.0366" cy="43.5196" rx="1.10526" ry="2.94737" transform="rotate(9.73276 32.0366 43.5196)" fill="#EBC814"/>
</g>
<ellipse cx="31.5383" cy="46.4246" rx="2.57895" ry="5.89474" transform="rotate(9.73276 31.5383 46.4246)" fill="#EEBE12" fill-opacity="0.39"/>
<ellipse cx="32.2963" cy="39.8262" rx="0.736842" ry="1.47368" transform="rotate(9.73276 32.2963 39.8262)" fill="#925218" fill-opacity="0.68"/>
<ellipse cx="32.2963" cy="39.8262" rx="0.736842" ry="1.47368" transform="rotate(9.73276 32.2963 39.8262)" fill="#C2C1C1" fill-opacity="0.52"/>
<path d="M31.9627 41.7715C32.4504 41.8551 32.825 41.5255 33.0367 41.2373C33.2681 40.9222 33.4363 40.4963 33.5154 40.0353C33.5944 39.5743 33.5778 39.1167 33.4646 38.7424C33.361 38.4002 33.1177 37.9646 32.63 37.8809C32.1422 37.7972 31.7677 38.1269 31.556 38.4151C31.3245 38.7302 31.1564 39.1561 31.0773 39.6171C30.9982 40.0781 31.0148 40.5357 31.1281 40.9099C31.2316 41.2522 31.4749 41.6878 31.9627 41.7715Z" stroke="#C2C1C1" stroke-opacity="0.52"/>
<g filter="url(#filter4_f_2_160)">
<ellipse cx="1.10526" cy="2.94737" rx="1.10526" ry="2.94737" transform="matrix(-0.985607 0.169053 0.169053 0.985607 16.0049 34.4278)" fill="#EBC814"/>
</g>
<ellipse cx="2.57895" cy="5.89474" rx="2.57895" ry="5.89474" transform="matrix(-0.985607 0.169053 0.169053 0.985607 17.4573 34.1787)" fill="#EEBE12" fill-opacity="0.39"/>
<ellipse cx="0.736842" cy="1.47368" rx="0.736842" ry="1.47368" transform="matrix(-0.985607 0.169053 0.169053 0.985607 15.6312 32.2491)" fill="#925218" fill-opacity="0.68"/>
<ellipse cx="0.736842" cy="1.47368" rx="0.736842" ry="1.47368" transform="matrix(-0.985607 0.169053 0.169053 0.985607 15.6312 32.2491)" fill="#C2C1C1" fill-opacity="0.52"/>
<path d="M15.4877 35.7715C15 35.8551 14.6254 35.5255 14.4137 35.2373C14.1822 34.9222 14.0141 34.4963 13.935 34.0353C13.8559 33.5743 13.8726 33.1167 13.9858 32.7424C14.0893 32.4002 14.3326 31.9646 14.8204 31.8809C15.3082 31.7972 15.6827 32.1269 15.8944 32.4151C16.1259 32.7302 16.294 33.1561 16.3731 33.6171C16.4522 34.0781 16.4356 34.5357 16.3223 34.9099C16.2188 35.2522 15.9755 35.6878 15.4877 35.7715Z" stroke="#C2C1C1" stroke-opacity="0.52"/>
<g filter="url(#filter5_f_2_160)">
<ellipse cx="1.10526" cy="2.94737" rx="1.10526" ry="2.94737" transform="matrix(-0.985607 0.169053 0.169053 0.985607 10.0049 55.4278)" fill="#EBC814"/>
</g>
<ellipse cx="2.57895" cy="5.89474" rx="2.57895" ry="5.89474" transform="matrix(-0.985607 0.169053 0.169053 0.985607 11.4573 55.1787)" fill="#EEBE12" fill-opacity="0.39"/>
<ellipse cx="0.736842" cy="1.47368" rx="0.736842" ry="1.47368" transform="matrix(-0.985607 0.169053 0.169053 0.985607 9.63116 53.2491)" fill="#925218" fill-opacity="0.68"/>
<ellipse cx="0.736842" cy="1.47368" rx="0.736842" ry="1.47368" transform="matrix(-0.985607 0.169053 0.169053 0.985607 9.63116 53.2491)" fill="#C2C1C1" fill-opacity="0.52"/>
<path d="M9.48772 56.7715C8.99995 56.8551 8.6254 56.5255 8.41372 56.2373C8.18224 55.9222 8.01409 55.4963 7.93502 55.0353C7.85595 54.5743 7.87256 54.1167 7.98579 53.7424C8.08934 53.4002 8.33264 52.9646 8.8204 52.8809C9.30817 52.7972 9.68271 53.1269 9.8944 53.4151C10.1259 53.7302 10.294 54.1561 10.3731 54.6171C10.4522 55.0781 10.4356 55.5357 10.3223 55.9099C10.2188 56.2522 9.97548 56.6878 9.48772 56.7715Z" stroke="#C2C1C1" stroke-opacity="0.52"/>
<g filter="url(#filter6_f_2_160)">
<ellipse cx="1.10526" cy="2.94737" rx="1.10526" ry="2.94737" transform="matrix(-0.985607 0.169053 0.169053 0.985607 27.0049 62.4278)" fill="#EBC814"/>
</g>
<ellipse cx="2.57895" cy="5.89474" rx="2.57895" ry="5.89474" transform="matrix(-0.985607 0.169053 0.169053 0.985607 28.4573 62.1787)" fill="#EEBE12" fill-opacity="0.39"/>
<ellipse cx="0.736842" cy="1.47368" rx="0.736842" ry="1.47368" transform="matrix(-0.985607 0.169053 0.169053 0.985607 26.6312 60.2491)" fill="#925218" fill-opacity="0.68"/>
<ellipse cx="0.736842" cy="1.47368" rx="0.736842" ry="1.47368" transform="matrix(-0.985607 0.169053 0.169053 0.985607 26.6312 60.2491)" fill="#C2C1C1" fill-opacity="0.52"/>
<path d="M26.4877 63.7715C26 63.8551 25.6254 63.5255 25.4137 63.2373C25.1822 62.9222 25.0141 62.4963 24.935 62.0353C24.8559 61.5743 24.8726 61.1167 24.9858 60.7424C25.0893 60.4002 25.3326 59.9646 25.8204 59.8809C26.3082 59.7972 26.6827 60.1269 26.8944 60.4151C27.1259 60.7302 27.294 61.1561 27.3731 61.6171C27.4522 62.0781 27.4356 62.5357 27.3223 62.9099C27.2188 63.2522 26.9755 63.6878 26.4877 63.7715Z" stroke="#C2C1C1" stroke-opacity="0.52"/>
<g filter="url(#filter7_f_2_160)">
<ellipse cx="50.579" cy="87.1579" rx="1.10526" ry="2.94737" fill="#EBC814"/>
</g>
<ellipse cx="50.5789" cy="90.1053" rx="2.57895" ry="5.89474" fill="#EEBE12" fill-opacity="0.39"/>
<ellipse cx="50.2105" cy="83.4737" rx="0.736842" ry="1.47368" fill="#925218" fill-opacity="0.68"/>
<ellipse cx="50.2105" cy="83.4737" rx="0.736842" ry="1.47368" fill="#C2C1C1" fill-opacity="0.52"/>
<path d="M50.2105 85.4474C50.7054 85.4474 51.0189 85.0592 51.1788 84.7393C51.3536 84.3896 51.4474 83.9414 51.4474 83.4737C51.4474 83.0059 51.3536 82.5578 51.1788 82.208C51.0189 81.8882 50.7054 81.5 50.2105 81.5C49.7156 81.5 49.4022 81.8882 49.2423 82.208C49.0674 82.5578 48.9737 83.0059 48.9737 83.4737C48.9737 83.9414 49.0674 84.3896 49.2423 84.7393C49.4022 85.0592 49.7156 85.4474 50.2105 85.4474Z" stroke="#C2C1C1" stroke-opacity="0.52"/>
<g filter="url(#filter8_f_2_160)">
<ellipse cx="56.2735" cy="75.4673" rx="1.10526" ry="2.94737" transform="rotate(-8.02245 56.2735 75.4673)" fill="#EBC814"/>
</g>
<ellipse cx="56.6849" cy="78.3859" rx="2.57895" ry="5.89474" transform="rotate(-8.02245 56.6849 78.3859)" fill="#EEBE12" fill-opacity="0.39"/>
<ellipse cx="55.3946" cy="71.8706" rx="0.736842" ry="1.47368" transform="rotate(-8.02245 55.3946 71.8706)" fill="#925218" fill-opacity="0.68"/>
<ellipse cx="55.3946" cy="71.8706" rx="0.736842" ry="1.47368" transform="rotate(-8.02245 55.3946 71.8706)" fill="#C2C1C1" fill-opacity="0.52"/>
<path d="M55.67 73.825C56.1601 73.7559 56.4162 73.3278 56.53 72.9888C56.6543 72.618 56.6846 72.1612 56.6193 71.698C56.554 71.2348 56.3987 70.8041 56.1767 70.4822C55.9737 70.1878 55.6092 69.8472 55.1191 69.9162C54.6291 69.9853 54.3729 70.4134 54.2592 70.7525C54.1348 71.1232 54.1045 71.5801 54.1698 72.0432C54.2351 72.5064 54.3905 72.9371 54.6124 73.259C54.8154 73.5534 55.18 73.8941 55.67 73.825Z" stroke="#C2C1C1" stroke-opacity="0.52"/>
<path d="M1 2C9.33333 6.33333 27.1 18.2 31.5 31C37 47 35 63 18 62C1 61 12 25.5 27 20C42 14.5 51 20.5 55 45.5C59 70.5 50 91.5 34 94" stroke="#925218"/>
<path d="M1 2C9.33333 6.33333 27.1 18.2 31.5 31C37 47 35 63 18 62C1 61 12 25.5 27 20C42 14.5 51 20.5 55 45.5C59 70.5 50 91.5 34 94" stroke="#C2C1C1" stroke-opacity="0.52" stroke-width="3"/>
<g filter="url(#filter9_f_2_160)">
<ellipse cx="36.3699" cy="22.3705" rx="1.10526" ry="2.94737" transform="rotate(5.20135 36.3699 22.3705)" fill="#EBC814"/>
</g>
<ellipse cx="36.1027" cy="25.3057" rx="2.57895" ry="5.89474" transform="rotate(5.20135 36.1027 25.3057)" fill="#EEBE12" fill-opacity="0.39"/>
<ellipse cx="36.337" cy="18.668" rx="0.736842" ry="1.47368" transform="rotate(5.20135 36.337 18.668)" fill="#925218" fill-opacity="0.68"/>
<ellipse cx="36.337" cy="18.668" rx="0.736842" ry="1.47368" transform="rotate(5.20135 36.337 18.668)" fill="#C2C1C1" fill-opacity="0.52"/>
<path d="M36.1581 20.6336C36.6509 20.6784 36.9983 20.3203 37.1865 20.0162C37.3924 19.6838 37.5264 19.246 37.5688 18.7801C37.6112 18.3143 37.5585 17.8595 37.416 17.4954C37.2858 17.1623 37.0088 16.7473 36.516 16.7025C36.0231 16.6576 35.6758 17.0158 35.4875 17.3198C35.2817 17.6522 35.1477 18.0901 35.1053 18.5559C35.0629 19.0217 35.1156 19.4765 35.258 19.8407C35.3883 20.1737 35.6653 20.5887 36.1581 20.6336Z" stroke="#C2C1C1" stroke-opacity="0.52"/>
<g filter="url(#filter10_f_2_160)">
<ellipse cx="50.3699" cy="35.3705" rx="1.10526" ry="2.94737" transform="rotate(5.20135 50.3699 35.3705)" fill="#EBC814"/>
</g>
<ellipse cx="50.1027" cy="38.3057" rx="2.57895" ry="5.89474" transform="rotate(5.20135 50.1027 38.3057)" fill="#EEBE12" fill-opacity="0.39"/>
<ellipse cx="50.337" cy="31.668" rx="0.736842" ry="1.47368" transform="rotate(5.20135 50.337 31.668)" fill="#925218" fill-opacity="0.68"/>
<ellipse cx="50.337" cy="31.668" rx="0.736842" ry="1.47368" transform="rotate(5.20135 50.337 31.668)" fill="#C2C1C1" fill-opacity="0.52"/>
<path d="M50.1581 33.6336C50.6509 33.6784 50.9983 33.3203 51.1865 33.0162C51.3924 32.6838 51.5264 32.246 51.5688 31.7801C51.6112 31.3143 51.5585 30.8595 51.416 30.4954C51.2858 30.1623 51.0088 29.7473 50.516 29.7025C50.0231 29.6576 49.6758 30.0158 49.4875 30.3198C49.2817 30.6522 49.1477 31.0901 49.1053 31.5559C49.0629 32.0217 49.1156 32.4765 49.258 32.8407C49.3883 33.1737 49.6653 33.5887 50.1581 33.6336Z" stroke="#C2C1C1" stroke-opacity="0.52"/>
<g filter="url(#filter11_f_2_160)">
<ellipse cx="56.7084" cy="53.6164" rx="1.10526" ry="2.94737" transform="rotate(-13.4561 56.7084 53.6164)" fill="#EBC814"/>
</g>
<ellipse cx="57.3943" cy="56.4829" rx="2.57895" ry="5.89474" transform="rotate(-13.4561 57.3943 56.4829)" fill="#EEBE12" fill-opacity="0.39"/>
<ellipse cx="55.4928" cy="50.1191" rx="0.736842" ry="1.47368" transform="rotate(-13.4561 55.4928 50.1191)" fill="#925218" fill-opacity="0.68"/>
<ellipse cx="55.4928" cy="50.1191" rx="0.736842" ry="1.47368" transform="rotate(-13.4561 55.4928 50.1191)" fill="#C2C1C1" fill-opacity="0.52"/>
<path d="M55.952 52.0386C56.4333 51.9234 56.6478 51.473 56.7289 51.1247C56.8176 50.7439 56.8045 50.2862 56.6957 49.8313C56.5868 49.3764 56.3914 48.9623 56.1399 48.6629C55.91 48.389 55.5148 48.0844 55.0335 48.1996C54.5522 48.3148 54.3377 48.7652 54.2566 49.1135C54.1679 49.4943 54.181 49.952 54.2899 50.4069C54.3987 50.8618 54.5942 51.2759 54.8456 51.5753C55.0756 51.8492 55.4707 52.1538 55.952 52.0386Z" stroke="#C2C1C1" stroke-opacity="0.52"/>
<defs>
<filter id="filter0_f_2_160" x="33.4737" y="93.2105" width="6.21054" height="9.89473" filterUnits="userSpaceOnUse" color-interpolation-filters="sRGB">
<feFlood flood-opacity="0" result="BackgroundImageFix"/>
<feBlend mode="normal" in="SourceGraphic" in2="BackgroundImageFix" result="shape"/>
<feGaussianBlur stdDeviation="1" result="effect1_foregroundBlur_2_160"/>
</filter>
<filter id="filter1_f_2_160" x="18.4737" y="16.2105" width="6.21054" height="9.89474" filterUnits="userSpaceOnUse" color-interpolation-filters="sRGB">
<feFlood flood-opacity="0" result="BackgroundImageFix"/>
<feBlend mode="normal" in="SourceGraphic" in2="BackgroundImageFix" result="shape"/>
<feGaussianBlur stdDeviation="1" result="effect1_foregroundBlur_2_160"/>
</filter>
<filter id="filter2_f_2_160" x="0.473694" y="3.21054" width="6.21054" height="9.89474" filterUnits="userSpaceOnUse" color-interpolation-filters="sRGB">
<feFlood flood-opacity="0" result="BackgroundImageFix"/>
<feBlend mode="normal" in="SourceGraphic" in2="BackgroundImageFix" result="shape"/>
<feGaussianBlur stdDeviation="1" result="effect1_foregroundBlur_2_160"/>
</filter>
<filter id="filter3_f_2_160" x="28.8384" y="38.6086" width="6.39636" height="9.82208" filterUnits="userSpaceOnUse" color-interpolation-filters="sRGB">
<feFlood flood-opacity="0" result="BackgroundImageFix"/>
<feBlend mode="normal" in="SourceGraphic" in2="BackgroundImageFix" result="shape"/>
<feGaussianBlur stdDeviation="1" result="effect1_foregroundBlur_2_160"/>
</filter>
<filter id="filter4_f_2_160" x="12.2156" y="32.6086" width="6.39636" height="9.82208" filterUnits="userSpaceOnUse" color-interpolation-filters="sRGB">
<feFlood flood-opacity="0" result="BackgroundImageFix"/>
<feBlend mode="normal" in="SourceGraphic" in2="BackgroundImageFix" result="shape"/>
<feGaussianBlur stdDeviation="1" result="effect1_foregroundBlur_2_160"/>
</filter>
<filter id="filter5_f_2_160" x="6.21561" y="53.6086" width="6.39636" height="9.82208" filterUnits="userSpaceOnUse" color-interpolation-filters="sRGB">
<feFlood flood-opacity="0" result="BackgroundImageFix"/>
<feBlend mode="normal" in="SourceGraphic" in2="BackgroundImageFix" result="shape"/>
<feGaussianBlur stdDeviation="1" result="effect1_foregroundBlur_2_160"/>
</filter>
<filter id="filter6_f_2_160" x="23.2156" y="60.6086" width="6.39636" height="9.82208" filterUnits="userSpaceOnUse" color-interpolation-filters="sRGB">
<feFlood flood-opacity="0" result="BackgroundImageFix"/>
<feBlend mode="normal" in="SourceGraphic" in2="BackgroundImageFix" result="shape"/>
<feGaussianBlur stdDeviation="1" result="effect1_foregroundBlur_2_160"/>
</filter>
<filter id="filter7_f_2_160" x="47.4737" y="82.2105" width="6.21054" height="9.89474" filterUnits="userSpaceOnUse" color-interpolation-filters="sRGB">
<feFlood flood-opacity="0" result="BackgroundImageFix"/>
<feBlend mode="normal" in="SourceGraphic" in2="BackgroundImageFix" result="shape"/>
<feGaussianBlur stdDeviation="1" result="effect1_foregroundBlur_2_160"/>
</filter>
<filter id="filter8_f_2_160" x="53.104" y="70.5447" width="6.33902" height="9.84534" filterUnits="userSpaceOnUse" color-interpolation-filters="sRGB">
<feFlood flood-opacity="0" result="BackgroundImageFix"/>
<feBlend mode="normal" in="SourceGraphic" in2="BackgroundImageFix" result="shape"/>
<feGaussianBlur stdDeviation="1" result="effect1_foregroundBlur_2_160"/>
</filter>
<filter id="filter9_f_2_160" x="33.237" y="17.4335" width="6.2659" height="9.87396" filterUnits="userSpaceOnUse" color-interpolation-filters="sRGB">
<feFlood flood-opacity="0" result="BackgroundImageFix"/>
<feBlend mode="normal" in="SourceGraphic" in2="BackgroundImageFix" result="shape"/>
<feGaussianBlur stdDeviation="1" result="effect1_foregroundBlur_2_160"/>
</filter>
<filter id="filter10_f_2_160" x="47.237" y="30.4335" width="6.2659" height="9.87396" filterUnits="userSpaceOnUse" color-interpolation-filters="sRGB">
<feFlood flood-opacity="0" result="BackgroundImageFix"/>
<feBlend mode="normal" in="SourceGraphic" in2="BackgroundImageFix" result="shape"/>
<feGaussianBlur stdDeviation="1" result="effect1_foregroundBlur_2_160"/>
</filter>
<filter id="filter11_f_2_160" x="53.4332" y="48.7383" width="6.55048" height="9.75632" filterUnits="userSpaceOnUse" color-interpolation-filters="sRGB">
<feFlood flood-opacity="0" result="BackgroundImageFix"/>
<feBlend mode="normal" in="SourceGraphic" in2="BackgroundImageFix" result="shape"/>
<feGaussianBlur stdDeviation="1" result="effect1_foregroundBlur_2_160"/>
</filter>
</defs>
</svg>
