<svg width="400" height="300" viewBox="0 0 400 300" fill="none" xmlns="http://www.w3.org/2000/svg">
<g clip-path="url(#clip0_1_5)">
<rect width="400" height="300" fill="white"/>
<circle cx="200.5" cy="149.5" r="109" fill="#CA0606" stroke="#E9C467" stroke-width="13"/>
<path d="M214 55.5C178.8 45.9 158.5 55.3333 149.5 65C147.833 70.6667 138 81.5 123 91C110.265 99.0658 108.5 99 110.5 118C112.5 137 106.5 141.5 103 164C99.5 186.5 126.5 224 136 223.5C145.5 223 148.5 218 165.5 237.5C182.5 257 209.5 255 221.5 248C233.5 241 227.5 235.5 263.5 223.5C299.164 211.612 290.5 174.5 293 169C308.577 134.731 290.5 153.5 296.5 132.5C302.5 111.5 292.5 96 279 93.5C265.5 91 269 89.5 263.5 77.5C258 65.5 258 67.5 214 55.5Z" fill="#FFE073"/>
<circle cx="169" cy="116" r="8" fill="#A03A3A"/>
<ellipse cx="158" cy="99" rx="11" ry="10" fill="#C22020" fill-opacity="0.76"/>
<circle cx="267" cy="120" r="8" fill="#A03A3A"/>
<ellipse cx="287.5" cy="104" rx="10.5" ry="10" fill="#C22020" fill-opacity="0.76"/>
<circle cx="259" cy="181" r="8" fill="#A03A3A"/>
<ellipse cx="277.5" cy="182" rx="10.5" ry="10" fill="#C22020" fill-opacity="0.76"/>
<circle cx="161" cy="83" r="8" fill="#A03A3A"/>
<ellipse cx="187.5" cy="61" rx="10.5" ry="10" fill="#C22020" fill-opacity="0.76"/>
<circle cx="173" cy="168" r="8" fill="#A03A3A"/>
<ellipse cx="154.5" cy="152" rx="10.5" ry="10" fill="#C22020" fill-opacity="0.76"/>
<circle cx="119" cy="138" r="8" fill="#A03A3A"/>
<ellipse cx="129.5" cy="104" rx="10.5" ry="10" fill="#C22020" fill-opacity="0.76"/>
<circle cx="229" cy="150" r="8" fill="#A03A3A"/>
<ellipse cx="237.5" cy="142" rx="10.5" ry="10" fill="#C22020" fill-opacity="0.9"/>
<circle cx="211" cy="170" r="8" fill="#A03A3A"/>
<ellipse cx="213.5" cy="168" rx="10.5" ry="10" fill="#C22020" fill-opacity="0.76"/>
<circle cx="211" cy="110" r="8" fill="#A03A3A"/>
<circle cx="213.5" cy="91.5" r="10.5" fill="#C22020" fill-opacity="0.76"/>
<circle cx="224" cy="79" r="8" fill="#A03A3A"/>
<ellipse cx="254.5" cy="89" rx="10.5" ry="10" fill="#C22020" fill-opacity="0.76"/>
<circle cx="287" cy="154" r="8" fill="#A03A3A"/>
<circle cx="279.5" cy="139.5" r="10.5" fill="#C22020" fill-opacity="0.76"/>
<circle cx="221" cy="207" r="8" fill="#A03A3A"/>
<ellipse cx="226.5" cy="215" rx="10.5" ry="10" fill="#C22020" fill-opacity="0.76"/>
<circle cx="148" cy="210" r="8" fill="#A03A3A"/>
<ellipse cx="131" cy="202.5" rx="11" ry="10.5" fill="#C22020" fill-opacity="0.76"/>
<circle cx="254" cy="215" r="8" fill="#A03A3A"/>
<ellipse cx="187.5" cy="142" rx="10.5" ry="10" fill="#C22020" fill-opacity="0.92"/>
<circle cx="140" cy="165" r="8" fill="#A03A3A"/>
<circle cx="119.5" cy="161.5" r="10.5" fill="#C22020" fill-opacity="0.76"/>
<circle cx="184" cy="205" r="8" fill="#A03A3A"/>
<circle cx="189.5" cy="235.5" r="10.5" fill="#C22020" fill-opacity="0.76"/>
<line x1="167.924" y1="129.506" x2="180.924" y2="127.506" stroke="#358C27"/>
<line x1="225.829" y1="123.53" x2="236.829" y2="119.53" stroke="#358C27"/>
<line x1="195.829" y1="111.53" x2="206.829" y2="107.53" stroke="#2CA917"/>
<line x1="268.829" y1="99.5301" x2="279.829" y2="95.5301" stroke="#2B781F"/>
<line x1="200.829" y1="232.53" x2="211.829" y2="228.53" stroke="#2B781F"/>
<line x1="204.474" y1="195.842" x2="205.474" y2="198.842" stroke="#358C27"/>
<line x1="174.474" y1="183.842" x2="175.474" y2="186.842" stroke="#2CA917"/>
<line x1="247.474" y1="171.842" x2="248.474" y2="174.842" stroke="#2B781F"/>
<line x1="144.41" y1="183.713" x2="151.41" y2="193.713" stroke="#358C27"/>
<line x1="114.41" y1="171.713" x2="121.41" y2="181.713" stroke="#2CA917"/>
<line x1="187.41" y1="159.713" x2="194.41" y2="169.713" stroke="#2B781F"/>
<line x1="174.41" y1="206.713" x2="181.41" y2="216.713" stroke="#2B781F"/>
<line x1="259.312" y1="161.39" x2="254.312" y2="165.39" stroke="#358C27"/>
<line x1="229.312" y1="149.39" x2="224.312" y2="153.39" stroke="#2CA917"/>
<line x1="302.312" y1="137.39" x2="297.312" y2="141.39" stroke="#2B781F"/>
<line x1="241.312" y1="236.39" x2="236.312" y2="240.39" stroke="#2B781F"/>
<line x1="184.429" y1="75.7428" x2="187.429" y2="80.7428" stroke="#358C27"/>
<line x1="154.429" y1="63.7428" x2="157.429" y2="68.7428" stroke="#2CA917"/>
<line x1="227.429" y1="51.7428" x2="230.429" y2="56.7428" stroke="#2B781F"/>
<line x1="159.429" y1="184.743" x2="162.429" y2="189.743" stroke="#2B781F"/>
<line x1="239.354" y1="90.6464" x2="240.354" y2="91.6464" stroke="#358C27"/>
<line x1="209.354" y1="78.6464" x2="210.354" y2="79.6464" stroke="#2CA917"/>
<line x1="254.354" y1="73.6464" x2="255.354" y2="74.6464" stroke="#2B781F"/>
<line x1="214.354" y1="199.646" x2="215.354" y2="200.646" stroke="#2B781F"/>
<line x1="241.224" y1="190.553" x2="247.224" y2="193.553" stroke="#358C27"/>
<line x1="211.224" y1="178.553" x2="217.224" y2="181.553" stroke="#2CA917"/>
<line x1="284.224" y1="166.553" x2="290.224" y2="169.553" stroke="#2B781F"/>
<line x1="202.224" y1="245.553" x2="208.224" y2="248.553" stroke="#2B781F"/>
<line x1="270.5" y1="199" x2="270.5" y2="203" stroke="#358C27"/>
<line x1="240.5" y1="187" x2="240.5" y2="191" stroke="#2CA917"/>
<line x1="259.5" y1="137" x2="259.5" y2="141" stroke="#2B781F"/>
<line x1="140.457" y1="121.203" x2="136.457" y2="130.203" stroke="#358C27"/>
<line x1="110.457" y1="109.203" x2="106.457" y2="118.203" stroke="#2CA917"/>
<line x1="183.457" y1="97.2031" x2="179.457" y2="106.203" stroke="#2B781F"/>
<line x1="161.457" y1="224.203" x2="157.457" y2="233.203" stroke="#2B781F"/>
</g>
<defs>
<clipPath id="clip0_1_5">
<rect width="400" height="300" fill="white"/>
</clipPath>
</defs>
</svg>
